<svg width="512" height="512" viewBox="0 0 512 512" xmlns="http://www.w3.org/2000/svg" role="img" aria-label="NFS Server Ganesha logo">
  <defs>
    <linearGradient id="bg" x1="0" y1="0" x2="1" y2="1">
      <stop offset="0%" stop-color="#0f172a"/>
      <stop offset="100%" stop-color="#111827"/>
    </linearGradient>
    <linearGradient id="accent" x1="0" y1="0" x2="1" y2="1">
      <stop offset="0%" stop-color="#22d3ee"/>
      <stop offset="100%" stop-color="#38bdf8"/>
    </linearGradient>
  </defs>

  <rect width="512" height="512" rx="84" fill="url(#bg)"/>

  <rect x="120" y="152" width="272" height="210" rx="24" fill="#f8fafc"/>
  <rect x="120" y="152" width="272" height="54" rx="24" fill="#e2e8f0"/>
  <circle cx="155" cy="179" r="8" fill="#0f172a"/>
  <circle cx="181" cy="179" r="8" fill="#0f172a"/>

  <rect x="166" y="228" width="180" height="20" rx="10" fill="#0f172a" opacity="0.88"/>
  <rect x="166" y="262" width="140" height="20" rx="10" fill="#0f172a" opacity="0.78"/>
  <rect x="166" y="296" width="95" height="20" rx="10" fill="#0f172a" opacity="0.68"/>

  <path d="M64 257 H120" stroke="url(#accent)" stroke-width="16" stroke-linecap="round"/>
  <path d="M392 257 H448" stroke="url(#accent)" stroke-width="16" stroke-linecap="round"/>
  <circle cx="56" cy="257" r="20" fill="none" stroke="url(#accent)" stroke-width="12"/>
  <circle cx="456" cy="257" r="20" fill="none" stroke="url(#accent)" stroke-width="12"/>

  <path d="M216 114 C230 92, 282 92, 296 114" fill="none" stroke="#f8fafc" stroke-width="10" stroke-linecap="round"/>
  <circle cx="256" cy="98" r="9" fill="#f8fafc"/>

  <circle cx="148" cy="406" r="9" fill="#22d3ee" opacity="0.9"/>
  <circle cx="178" cy="430" r="6" fill="#22d3ee" opacity="0.75"/>
  <circle cx="364" cy="404" r="9" fill="#38bdf8" opacity="0.9"/>
  <circle cx="334" cy="430" r="6" fill="#38bdf8" opacity="0.75"/>
</svg>